PathFileType	4	(X/Y/Z)	Walking04.trc	
DataRate	CameraRate	NumFrames	NumMarkers	Units	OrigDataRate	OrigDataStartFrame	OrigNumFrames	
100.00	100.00	13	19	mm	100.00	373	98	
Frame#	Time	RPSI			LPSI			RASI			LASI			RTHI			RKNE			RHFB			RTUB			RSHN			RANK			RLCA			RSTL			RPCA			RCPG			RHEE			RP5M			RP1M			RD5M			RTOE			
		X1	Y1	Z1	X2	Y2	Z2	X3	Y3	Z3	X4	Y4	Z4	X5	Y5	Z5	X6	Y6	Z6	X7	Y7	Z7	X8	Y8	Z8	X9	Y9	Z9	X10	Y10	Z10	X11	Y11	Z11	X12	Y12	Z12	X13	Y13	Z13	X14	Y14	Z14	X15	Y15	Z15	X16	Y16	Z16	X17	Y17	Z17	X18	Y18	Z18	X19	Y19	Z19	

25	0.240	-412.07620	931.83783	-46.03784	-415.90945	930.18506	-140.29091	-223.76955	884.92633	25.15052	-221.74437	874.07300	-209.13174	-303.50034	574.62891	49.92091	-304.49545	433.10410	16.52620	-312.80173	391.65643	13.72005	-255.13089	380.81815	-43.27699	-274.48358	308.31808	-51.45237	-379.91791	64.44608	-29.55427	-393.14291	41.24321	-36.67452	-381.78598	42.17726	-101.35569	-414.09558	66.92775	-73.89484	-439.71570	53.57792	-76.05884	-422.63770	24.67985	-78.82784	-303.12802	11.25022	-1.08548	-276.95935	59.47347	-81.20106	-267.13354	14.53348	6.98569	-228.36717	34.41648	-35.05437 
26	0.250	-398.20413	933.31104	-46.51110	-402.16415	931.39734	-140.88428	-210.46994	885.59967	25.21056	-207.73146	875.67615	-208.25496	-297.08148	574.49591	48.68161	-301.18579	433.12759	15.70001	-309.50430	391.91501	13.03647	-252.28798	380.31943	-44.15618	-272.34113	308.21609	-52.40632	-379.17459	64.82724	-29.83804	-392.83521	41.88974	-37.06913	-381.26959	42.68666	-101.78728	-413.49539	67.51938	-74.15095	-439.28699	54.54636	-76.47457	-422.36261	25.41814	-79.26495	-303.17456	11.48043	-1.19255	-276.44992	59.45578	-81.32574	-267.10809	14.50583	7.00265	-228.70784	34.26306	-34.54568 
27	0.260	-384.34238	934.41187	-47.13179	-388.34692	932.25995	-141.43547	-197.21788	885.96545	25.40108	-193.73254	876.67474	-207.85204	-290.99460	574.48969	47.53312	-297.61758	433.38007	14.92617	-306.35953	392.28711	12.29549	-249.29272	379.84525	-44.84066	-269.99081	308.18112	-53.09944	-378.03528	64.78594	-30.29979	-392.45868	42.54649	-37.74956	-380.49503	43.21283	-102.28439	-412.88998	68.36303	-74.85782	-439.07748	55.50075	-77.29877	-422.11108	26.27438	-79.96009	-303.16461	11.83056	-1.35859	-275.85208	59.49357	-81.50368	-267.12955	14.54728	7.01408	-228.58438	33.86374	-34.56635 
28	0.270	-370.55981	935.06805	-47.88095	-374.46564	932.70746	-142.07874	-183.46887	885.99457	25.42620	-179.68425	877.08868	-207.93578	-284.98773	574.63818	46.47607	-293.88104	433.87994	14.13988	-303.34628	392.78729	11.48138	-246.29231	379.41879	-45.39349	-267.36169	308.15143	-53.32325	-377.68359	65.73272	-31.10009	-392.03644	43.37237	-38.52495	-379.64429	43.72757	-102.92641	-412.21976	69.55912	-75.89215	-438.48920	56.62073	-78.28240	-421.71121	27.22633	-80.85930	-303.17444	12.31175	-1.55495	-275.97897	59.14737	-81.86765	-267.10349	14.59601	6.94189	-228.39812	33.21212	-34.84877 
29	0.280	-356.78925	935.20306	-48.64889	-360.47711	932.64325	-142.78949	-169.58978	885.51276	25.33843	-165.48788	877.01526	-208.36824	-278.44101	574.97034	45.60406	-290.40216	434.45612	13.39500	-300.44009	393.31299	10.70418	-243.24817	378.87305	-45.85244	-264.53345	308.09229	-53.28842	-377.51553	67.04472	-32.00030	-391.69662	44.51870	-39.31173	-379.09540	44.60913	-103.97135	-411.54486	70.74314	-77.01436	-437.83063	57.98496	-79.57088	-421.33606	28.30441	-81.82021	-303.14957	12.81297	-1.82034	-276.21204	58.71781	-82.29897	-267.11618	14.65246	6.84015	-228.06294	33.13384	-34.72209 
30	0.290	-343.09470	934.80847	-49.41878	-346.37164	932.07294	-143.47881	-157.03296	883.98883	25.64002	-151.21748	876.40955	-208.95117	-271.35730	575.32538	44.82182	-286.99783	435.07022	12.64161	-297.53455	393.91608	10.05001	-239.99812	378.55054	-46.02051	-261.78644	308.05695	-53.58300	-376.48230	67.42139	-32.77663	-391.31277	45.66672	-40.22177	-378.12106	45.43738	-104.69184	-410.70578	71.83543	-78.15342	-437.17117	59.42637	-80.91493	-420.83862	29.53064	-82.87691	-303.15756	13.38093	-2.05932	-274.39694	59.28262	-82.40889	-267.12494	14.74522	6.68601	-227.67363	33.22630	-34.49167 
31	0.300	-329.36365	934.00098	-50.43035	-332.11075	931.03387	-144.19734	-143.90201	882.27368	25.67230	-136.86539	875.37012	-209.60774	-263.90326	575.48822	44.05433	-283.26904	435.75018	12.08238	-294.42834	394.63815	9.30627	-236.80956	378.31830	-45.94945	-258.72992	307.99414	-53.86582	-375.81467	68.32610	-33.87948	-390.89285	46.73676	-41.56823	-376.82437	46.29684	-105.32965	-409.65152	72.95198	-79.37635	-436.36536	60.88012	-82.34287	-420.02420	30.81923	-84.55655	-303.21097	14.13439	-2.48624	-273.25769	59.58930	-82.59119	-267.19962	14.88035	6.45485	-227.30922	32.78358	-34.73583 
32	0.310	-315.63776	932.53705	-51.44427	-317.75290	929.53131	-145.02823	-130.40800	880.41071	25.64170	-122.18262	874.07648	-210.50130	-255.45061	575.43567	43.58671	-278.94766	436.31030	11.47172	-291.05756	395.31335	8.31337	-232.87460	378.00766	-45.94256	-255.25693	307.93509	-54.17657	-375.09073	69.55085	-35.31822	-390.45032	48.06516	-43.29815	-375.79108	47.87308	-106.83934	-408.55338	74.47041	-81.00961	-435.37051	62.49575	-84.39488	-419.16168	32.41645	-86.74340	-303.38687	14.80480	-3.39395	-272.19690	59.88150	-82.88922	-267.37149	15.10571	6.08216	-226.99406	32.77547	-34.60640 
33	0.320	-301.86627	930.45526	-52.58670	-303.39182	927.48047	-145.96352	-116.69687	878.34241	25.61688	-107.16151	872.57495	-211.48061	-246.10840	575.11169	43.22934	-273.94162	436.77777	10.76442	-287.02097	395.94467	7.22372	-228.33127	377.58893	-46.03568	-251.26997	307.94495	-54.62055	-374.29572	71.13227	-36.75887	-389.96811	49.85246	-44.86987	-374.94077	49.92859	-108.84922	-407.42816	76.54601	-82.83183	-434.30170	64.74364	-86.91772	-418.53006	34.53492	-88.79261	-303.53122	15.34638	-4.38726	-271.15494	60.11840	-83.34988	-267.72519	15.31574	5.60778	-226.86948	33.03284	-34.22407 
34	0.330	-287.99670	928.00616	-54.02681	-289.36194	925.08942	-146.99838	-102.77923	876.18750	25.70604	-91.94278	870.77155	-211.96068	-236.56726	574.64093	42.66983	-267.99875	437.14468	9.95463	-282.07870	396.52267	6.14490	-223.06863	377.03790	-46.45329	-246.79335	307.99579	-55.25252	-373.62592	72.81846	-38.24441	-389.52145	51.68208	-46.52824	-373.84619	51.57601	-110.50715	-406.25070	78.63963	-84.59851	-433.20660	67.32433	-88.84126	-417.97113	36.84387	-90.91609	-303.60544	15.78576	-5.63857	-270.27994	60.37191	-83.81400	-268.17923	15.53638	5.08853	-226.84601	33.05634	-34.25101 
35	0.340	-273.96130	925.23254	-55.61747	-274.76672	922.20160	-148.31525	-88.73976	873.95355	25.96212	-76.29082	868.67084	-212.09264	-227.01073	574.17847	42.10033	-261.04385	437.32666	9.05097	-276.14807	396.96652	5.19857	-217.25807	376.23065	-47.18646	-241.90546	307.95670	-55.93377	-372.96579	74.65312	-39.62911	-388.86938	53.63967	-48.05338	-372.64322	53.38018	-112.00339	-405.02405	80.78715	-86.25517	-432.29532	69.72495	-90.58903	-417.31323	39.17239	-92.71370	-303.85406	16.12586	-6.76585	-269.39026	60.63712	-84.31105	-268.53546	15.79238	4.60938	-226.87375	33.03819	-34.38531 
36	0.350	-259.56537	922.25470	-57.49310	-258.90598	918.64893	-150.00023	-74.68697	871.64087	26.39849	-60.45370	866.30865	-211.92029	-217.36032	573.70691	41.58934	-253.17102	437.16556	8.22323	-269.38873	397.23340	4.37266	-210.89288	375.34665	-47.90213	-236.69745	307.62503	-56.60574	-372.16287	76.69746	-40.69053	-388.11880	55.74358	-49.23606	-371.57794	55.34010	-113.12650	-403.75436	83.08540	-87.75657	-431.14734	72.57472	-92.31693	-416.71628	41.68304	-93.99966	-304.43741	16.46060	-7.52447	-268.46164	60.99010	-84.68552	-268.83459	16.00051	4.17419	-226.86325	32.96215	-34.46236 
37	0.360	-244.57088	919.15509	-59.56832	-243.38757	915.01044	-151.83401	-60.76648	869.08282	26.98187	-44.54789	863.70087	-211.42441	-207.59500	573.08459	41.03848	-244.81424	436.85938	7.60298	-261.95639	397.28735	3.81403	-203.87300	374.49387	-48.35097	-231.10092	307.06000	-57.15333	-371.13040	78.91344	-41.33521	-388.26620	58.10819	-50.20735	-370.67358	57.48109	-113.75187	-402.78903	84.55521	-88.68323	-430.09937	75.69817	-93.21667	-416.19736	44.49734	-94.78735	-305.31100	16.93339	-7.73973	-267.73923	61.31057	-85.01394	-269.14038	16.14370	3.74396	-226.85355	32.90486	-34.52581 
